<svg width="1204" height="245" viewBox="0 0 1204 245" fill="none" xmlns="http://www.w3.org/2000/svg">
<path d="M51.3869 18.7554L39.4924 17.5518C35.1971 17.5518 31.8695 18.5902 29.5095 20.667C27.0078 22.9798 25.167 27.4403 23.987 34.0483C22.807 40.6092 21.6742 49.3649 20.5886 60.3154C19.503 71.2188 18.9601 79.1012 18.9601 83.9629C18.9601 88.7773 19.739 92.1994 21.2966 94.229C22.8542 96.2114 24.695 97.2026 26.819 97.2026C28.9903 97.2026 30.7367 97.179 32.0583 97.1318L36.7311 56.9878C36.9199 55.9494 37.5335 55.383 38.572 55.2886L51.8825 54.793C53.1569 54.8402 53.7941 55.4066 53.7941 56.4922L47.8469 109.593C47.6581 110.631 47.0209 111.221 45.9352 111.363C39.6576 112.307 32.0111 112.779 22.9958 112.779C12.1869 112.779 5.24839 107.563 2.18036 97.1318C1.33075 94.2526 0.905945 91.397 0.905945 88.5649C0.905945 85.7329 1.00035 82.3817 1.18915 78.5112C1.75555 64.6343 3.40757 50.2381 6.1452 35.3228C7.98602 24.9386 10.2516 17.6462 12.9421 13.4453C15.7741 9.05566 19.1725 5.98763 23.1374 4.24121C28.0934 2.06999 33.4035 0.984375 39.0676 0.984375C44.7316 0.984375 48.5077 1.14958 50.3957 1.47998C52.2837 1.76318 53.3457 1.92839 53.5817 1.97559C54.1481 2.16439 54.4313 2.75439 54.4313 3.74561L52.8737 16.9146C52.6849 18.1418 52.1893 18.7554 51.3869 18.7554ZM84.247 113.062C76.3173 113.062 70.3228 110.702 66.2636 105.982C62.2043 101.262 60.1747 95.3618 60.1747 88.2817C60.1747 70.2511 61.9919 52.4329 65.6264 34.8271C68.5056 20.9974 72.494 11.7461 77.5917 7.07324C82.4061 2.73079 88.7546 0.55957 96.6371 0.55957C104.567 0.55957 110.561 2.9432 114.62 7.71045C118.727 12.4777 120.78 18.3542 120.78 25.3398C120.78 32.2783 120.332 40.7036 119.435 50.6157C118.538 60.4806 117.429 68.7407 116.107 75.396C114.786 82.0041 113.653 86.8421 112.709 89.9102C111.812 92.931 110.561 95.999 108.956 99.1143C107.352 102.229 105.487 104.731 103.363 106.619C98.5959 110.914 92.2239 113.062 84.247 113.062ZM86.0878 96.353C92.0822 96.353 95.9291 90.8306 97.6283 79.7856C98.7611 72.4696 99.8939 63.3599 101.027 52.4565C102.16 41.5532 102.726 33.8831 102.726 29.4463C102.726 25.0094 101.994 21.8706 100.531 20.0298C99.1151 18.189 97.0855 17.2686 94.4423 17.2686C88.967 17.2686 85.2618 22.8146 83.3266 33.9067C82.1937 40.4204 81.0609 49.2705 79.9281 60.457C78.7953 71.5964 78.2289 79.4552 78.2289 84.0337C78.2289 88.6121 78.9605 91.8218 80.4237 93.6626C81.9341 95.4562 83.8222 96.353 86.0878 96.353ZM149.746 113.062C141.816 113.062 135.822 110.702 131.763 105.982C127.704 101.262 125.674 95.3618 125.674 88.2817C125.674 70.2511 127.491 52.4329 131.126 34.8271C134.005 20.9974 137.993 11.7461 143.091 7.07324C147.905 2.73079 154.254 0.55957 162.136 0.55957C170.066 0.55957 176.06 2.9432 180.12 7.71045C184.226 12.4777 186.279 18.3542 186.279 25.3398C186.279 32.2783 185.831 40.7036 184.934 50.6157C184.037 60.4806 182.928 68.7407 181.607 75.396C180.285 82.0041 179.152 86.8421 178.208 89.9102C177.311 92.931 176.06 95.999 174.456 99.1143C172.851 102.229 170.986 104.731 168.862 106.619C164.095 110.914 157.723 113.062 149.746 113.062ZM151.587 96.353C157.581 96.353 161.428 90.8306 163.128 79.7856C164.26 72.4696 165.393 63.3599 166.526 52.4565C167.659 41.5532 168.225 33.8831 168.225 29.4463C168.225 25.0094 167.494 21.8706 166.03 20.0298C164.614 18.189 162.585 17.2686 159.941 17.2686C154.466 17.2686 150.761 22.8146 148.826 33.9067C147.693 40.4204 146.56 49.2705 145.427 60.457C144.295 71.5964 143.728 79.4552 143.728 84.0337C143.728 88.6121 144.46 91.8218 145.923 93.6626C147.433 95.4562 149.321 96.353 151.587 96.353ZM201.439 3.81641C201.534 3.25 201.699 2.8488 201.935 2.61279C202.171 2.37679 204.554 2.04639 209.086 1.62158C213.617 1.19678 219.824 0.984375 227.706 0.984375C235.636 0.984375 241.725 3.2736 245.973 7.85205C250.221 12.3833 252.345 18.6138 252.345 26.5435C252.345 41.506 250.669 58.7342 247.318 78.228C245.525 88.5649 242.622 96.2586 238.61 101.309C234.928 105.935 229.17 108.979 221.334 110.442C217.794 111.056 213.475 111.457 208.378 111.646L190.748 112.283C189.71 112.236 189.191 111.788 189.191 110.938L201.439 3.81641ZM217.653 17.481L209.015 94.583C216.048 93.9694 220.909 92.6006 223.6 90.4766C226.338 88.3525 228.249 84.3169 229.335 78.3696C230.42 72.4224 231.482 64.3039 232.521 54.0142C233.606 43.7244 234.149 35.2992 234.149 28.7383C234.149 24.8678 233.205 21.9886 231.317 20.1006C229.429 18.2126 226.857 17.2686 223.6 17.2686C220.39 17.2686 218.408 17.3394 217.653 17.481ZM342.279 3.3208L330.172 110.018C329.983 111.103 329.393 111.693 328.402 111.788L313.817 112.283C312.779 112.283 312.259 111.835 312.259 110.938L317.499 64.4219L299.515 65.0591L294.418 110.018C294.276 111.15 293.662 111.74 292.577 111.788L277.992 112.283C276.953 112.283 276.434 111.835 276.434 110.938L288.612 3.81641C288.801 2.8252 289.414 2.28239 290.453 2.18799L304.684 1.62158C305.911 1.66878 306.525 2.23519 306.525 3.3208L301.356 48.4209L319.41 47.7837L324.366 3.81641C324.508 2.77799 325.145 2.23519 326.278 2.18799L340.438 1.62158C341.665 1.66878 342.279 2.23519 342.279 3.3208ZM388.096 63.5723L366.077 64.4219L362.749 93.4502L389.866 92.5298C391.093 92.577 391.706 93.1906 391.706 94.3706L389.866 109.026C389.771 110.018 389.158 110.631 388.025 110.867L344.482 112.283C343.444 112.283 342.925 111.835 342.925 110.938L355.173 3.81641C355.362 2.8252 355.976 2.28239 357.014 2.18799L395.813 0.842773C396.993 0.984375 397.583 1.62158 397.583 2.75439L395.813 17.4102C395.671 18.5902 395.058 19.2274 393.972 19.3218L371.174 19.959L368.13 46.2969L389.936 45.5181C391.164 45.5653 391.777 46.1789 391.777 47.3589L389.936 61.8022C389.748 62.8879 389.134 63.4779 388.096 63.5723ZM442.833 3.3208L451.117 109.947C451.117 111.032 450.503 111.622 449.276 111.717L434.479 112.283C433.487 112.283 432.992 111.835 432.992 110.938L431.93 87.5737L415.858 88.2109L410.548 110.018C410.406 110.678 410.218 111.127 409.982 111.363C409.746 111.599 409.321 111.74 408.707 111.788L394.051 112.283C393.107 112.283 392.635 111.835 392.635 110.938L423.717 3.81641C424.047 2.77799 424.684 2.23519 425.629 2.18799L441.205 1.62158C442.196 1.66878 442.739 2.23519 442.833 3.3208ZM429.452 32.4907L419.54 73.1304L431.293 72.7056L429.452 32.4907ZM487.871 3.3916L477.746 93.3794L504.863 92.3174C506.09 92.3646 506.704 92.9782 506.704 94.1582L504.863 108.814C504.721 110.041 504.108 110.678 503.022 110.726L459.409 112.283C458.418 112.283 457.922 111.835 457.922 110.938L470.029 3.81641C470.123 3.25 470.265 2.8488 470.454 2.61279C470.69 2.37679 471.138 2.23519 471.799 2.18799L486.03 1.69238C487.257 1.73958 487.871 2.30599 487.871 3.3916ZM518.607 2.47119L564.486 0.842773C565.571 0.889974 566.114 1.47998 566.114 2.61279L564.273 17.127C564.179 17.835 564.014 18.3306 563.778 18.6138C563.589 18.897 563.164 19.0622 562.503 19.1094L548.768 19.605L538.431 110.018C538.29 111.15 537.676 111.74 536.59 111.788L521.864 112.283C520.92 112.283 520.448 111.835 520.448 110.938L530.855 20.1714L516.766 20.5962C515.586 20.549 514.996 20.0062 514.996 18.9678L516.766 4.24121C516.813 3.1084 517.427 2.51839 518.607 2.47119ZM625.171 3.3208L613.064 110.018C612.875 111.103 612.285 111.693 611.294 111.788L596.709 112.283C595.67 112.283 595.151 111.835 595.151 110.938L600.39 64.4219L582.407 65.0591L577.309 110.018C577.168 111.15 576.554 111.74 575.468 111.788L560.883 112.283C559.845 112.283 559.326 111.835 559.326 110.938L571.504 3.81641C571.692 2.8252 572.306 2.28239 573.344 2.18799L587.575 1.62158C588.803 1.66878 589.416 2.23519 589.416 3.3208L584.248 48.4209L602.302 47.7837L607.258 3.81641C607.4 2.77799 608.037 2.23519 609.17 2.18799L623.33 1.62158C624.557 1.66878 625.171 2.23519 625.171 3.3208ZM645.295 113.062C644.115 113.062 643.525 112.496 643.525 111.363L645.295 96.5654C645.484 95.527 646.097 94.9606 647.136 94.8662C654.499 94.111 659.361 92.9546 661.721 91.397C664.081 89.7922 665.261 86.6297 665.261 81.9097C665.261 77.1896 664.057 71.0535 661.65 63.5015C659.243 55.9022 657.685 50.8517 656.977 48.3501C654.711 40.326 653.579 33.7651 653.579 28.6675C653.579 23.5226 654.405 19.133 656.057 15.4985C657.709 11.8641 660.069 8.96126 663.137 6.79004C669.084 2.63639 677.085 0.55957 687.138 0.55957C688.413 0.55957 689.05 1.14958 689.05 2.32959L687.138 16.9854C686.949 18.1654 686.359 18.8026 685.368 18.897C676.211 19.5106 671.633 22.2246 671.633 27.0391C671.633 31.4759 673.568 40.208 677.439 53.2354C681.356 66.2155 683.315 75.514 683.315 81.1309C683.315 102.418 670.642 113.062 645.295 113.062ZM695.36 2.47119L741.239 0.842773C742.324 0.889974 742.867 1.47998 742.867 2.61279L741.026 17.127C740.932 17.835 740.767 18.3306 740.531 18.6138C740.342 18.897 739.917 19.0622 739.256 19.1094L725.521 19.605L715.184 110.018C715.042 111.15 714.429 111.74 713.343 111.788L698.617 112.283C697.673 112.283 697.201 111.835 697.201 110.938L707.608 20.1714L693.519 20.5962C692.339 20.549 691.749 20.0062 691.749 18.9678L693.519 4.24121C693.566 3.1084 694.18 2.51839 695.36 2.47119ZM780.542 3.3208L788.825 109.947C788.825 111.032 788.212 111.622 786.984 111.717L772.187 112.283C771.196 112.283 770.7 111.835 770.7 110.938L769.638 87.5737L753.566 88.2109L748.256 110.018C748.115 110.678 747.926 111.127 747.69 111.363C747.454 111.599 747.029 111.74 746.416 111.788L731.76 112.283C730.816 112.283 730.344 111.835 730.344 110.938L761.425 3.81641C761.756 2.77799 762.393 2.23519 763.337 2.18799L778.913 1.62158C779.904 1.66878 780.447 2.23519 780.542 3.3208ZM767.16 32.4907L757.248 73.1304L769.001 72.7056L767.16 32.4907ZM855.882 110.301C855.882 111.245 855.245 111.717 853.97 111.717L838.04 112.283C837.332 112.236 836.813 111.788 836.483 110.938L818.712 65.9087L813.756 110.018C813.614 111.15 813.024 111.74 811.986 111.788L797.188 112.283C796.15 112.189 795.631 111.74 795.631 110.938L807.879 4.38281C807.973 3.5332 808.186 2.9668 808.516 2.68359C808.847 2.35319 811.348 1.99919 816.021 1.62158C820.694 1.19678 826.924 0.984375 834.713 0.984375C842.501 0.984375 848.495 3.0612 852.696 7.21484C856.944 11.3213 859.068 16.6313 859.068 23.145C859.068 29.6587 858.289 35.4172 856.732 40.4204C855.174 45.3765 852.602 49.8369 849.014 53.8018C845.427 57.7666 840.943 60.7166 835.562 62.6519L855.67 109.451C855.811 109.734 855.882 110.018 855.882 110.301ZM824.163 17.481L820.198 52.6689C828.931 52.1497 834.949 48.1849 838.253 40.7744C840.046 36.7152 840.943 32.6087 840.943 28.4551C840.943 24.2542 840.07 21.3278 838.323 19.6758C836.624 17.9766 834.146 17.127 830.889 17.127C827.633 17.127 825.39 17.245 824.163 17.481ZM866.652 2.47119L912.531 0.842773C913.617 0.889974 914.16 1.47998 914.16 2.61279L912.319 17.127C912.224 17.835 912.059 18.3306 911.823 18.6138C911.634 18.897 911.21 19.0622 910.549 19.1094L896.813 19.605L886.476 110.018C886.335 111.15 885.721 111.74 884.636 111.788L869.909 112.283C868.965 112.283 868.493 111.835 868.493 110.938L878.901 20.1714L864.811 20.5962C863.631 20.549 863.041 20.0062 863.041 18.9678L864.811 4.24121C864.859 3.1084 865.472 2.51839 866.652 2.47119ZM905.814 113.062C904.634 113.062 904.044 112.496 904.044 111.363L905.814 96.5654C906.002 95.527 906.616 94.9606 907.654 94.8662C915.018 94.111 919.879 92.9546 922.239 91.397C924.599 89.7922 925.779 86.6297 925.779 81.9097C925.779 77.1896 924.576 71.0535 922.169 63.5015C919.761 55.9022 918.204 50.8517 917.496 48.3501C915.23 40.326 914.097 33.7651 914.097 28.6675C914.097 23.5226 914.923 19.133 916.575 15.4985C918.227 11.8641 920.587 8.96126 923.655 6.79004C929.603 2.63639 937.603 0.55957 947.657 0.55957C948.931 0.55957 949.568 1.14958 949.568 2.32959L947.657 16.9854C947.468 18.1654 946.878 18.8026 945.887 18.897C936.73 19.5106 932.151 22.2246 932.151 27.0391C932.151 31.4759 934.087 40.208 937.957 53.2354C941.875 66.2155 943.834 75.514 943.834 81.1309C943.834 102.418 931.16 113.062 905.814 113.062ZM1027.75 1.69238C1028.79 1.69238 1029.31 2.14079 1029.31 3.0376L1030.16 84.8833L1047.72 3.88721C1048.05 2.8488 1048.61 2.28239 1049.41 2.18799L1062.8 1.69238C1063.74 1.78678 1064.21 2.23519 1064.21 3.0376L1035.75 109.947C1035.42 110.985 1034.9 111.552 1034.19 111.646L1017.84 112.283C1016.8 112.236 1016.28 111.646 1016.28 110.513L1015.64 44.1729L1001.98 110.018C1001.69 111.15 1001.13 111.717 1000.28 111.717L983.287 112.283C982.295 112.236 981.753 111.646 981.658 110.513L975.711 3.88721C975.711 2.8016 976.348 2.23519 977.623 2.18799L992.349 1.69238C993.388 1.69238 993.907 2.14079 993.907 3.0376L994.898 86.2285L1012.88 3.88721C1013.07 2.896 1013.8 2.32959 1015.08 2.18799L1027.75 1.69238ZM1089.07 3.3916L1076.96 110.018C1076.82 111.15 1076.21 111.74 1075.12 111.788L1060.54 112.283C1059.5 112.283 1058.98 111.835 1058.98 110.938L1071.23 3.81641C1071.42 2.8252 1072.03 2.28239 1073.07 2.18799L1087.23 1.69238C1088.46 1.73958 1089.07 2.30599 1089.07 3.3916ZM1096.44 2.47119L1142.32 0.842773C1143.41 0.889974 1143.95 1.47998 1143.95 2.61279L1142.11 17.127C1142.02 17.835 1141.85 18.3306 1141.61 18.6138C1141.43 18.897 1141 19.0622 1140.34 19.1094L1126.6 19.605L1116.27 110.018C1116.13 111.15 1115.51 111.74 1114.43 111.788L1099.7 112.283C1098.76 112.283 1098.28 111.835 1098.28 110.938L1108.69 20.1714L1094.6 20.5962C1093.42 20.549 1092.83 20.0062 1092.83 18.9678L1094.6 4.24121C1094.65 3.1084 1095.26 2.51839 1096.44 2.47119ZM1203.01 3.3208L1190.9 110.018C1190.71 111.103 1190.12 111.693 1189.13 111.788L1174.54 112.283C1173.51 112.283 1172.99 111.835 1172.99 110.938L1178.23 64.4219L1160.24 65.0591L1155.15 110.018C1155 111.15 1154.39 111.74 1153.3 111.788L1138.72 112.283C1137.68 112.283 1137.16 111.835 1137.16 110.938L1149.34 3.81641C1149.53 2.8252 1150.14 2.28239 1151.18 2.18799L1165.41 1.62158C1166.64 1.66878 1167.25 2.23519 1167.25 3.3208L1162.08 48.4209L1180.14 47.7837L1185.09 3.81641C1185.24 2.77799 1185.87 2.23519 1187.01 2.18799L1201.17 1.62158C1202.39 1.66878 1203.01 2.23519 1203.01 3.3208ZM327.632 132.692C328.67 132.692 329.189 133.141 329.189 134.038L330.039 215.883L347.598 134.887C347.928 133.849 348.494 133.282 349.297 133.188L362.678 132.692C363.622 132.787 364.094 133.235 364.094 134.038L335.632 240.947C335.302 241.985 334.783 242.552 334.075 242.646L317.72 243.283C316.681 243.236 316.162 242.646 316.162 241.513L315.525 175.173L301.86 241.018C301.577 242.15 301.011 242.717 300.161 242.717L283.169 243.283C282.178 243.236 281.635 242.646 281.54 241.513L275.593 134.887C275.593 133.802 276.23 133.235 277.505 133.188L292.231 132.692C293.27 132.692 293.789 133.141 293.789 134.038L294.78 217.229L312.764 134.887C312.952 133.896 313.684 133.33 314.958 133.188L327.632 132.692ZM424.708 134.321L412.601 241.018C412.412 242.103 411.822 242.693 410.831 242.788L396.246 243.283C395.208 243.283 394.689 242.835 394.689 241.938L399.928 195.422L381.944 196.059L376.847 241.018C376.705 242.15 376.092 242.74 375.006 242.788L360.421 243.283C359.383 243.283 358.863 242.835 358.863 241.938L371.041 134.816C371.23 133.825 371.844 133.282 372.882 133.188L387.113 132.622C388.34 132.669 388.954 133.235 388.954 134.321L383.785 179.421L401.839 178.784L406.796 134.816C406.937 133.778 407.574 133.235 408.707 133.188L422.867 132.622C424.095 132.669 424.708 133.235 424.708 134.321ZM469.817 134.321L478.1 240.947C478.1 242.032 477.487 242.622 476.26 242.717L461.462 243.283C460.471 243.283 459.975 242.835 459.975 241.938L458.913 218.574L442.842 219.211L437.532 241.018C437.39 241.678 437.201 242.127 436.965 242.363C436.729 242.599 436.304 242.74 435.691 242.788L421.035 243.283C420.091 243.283 419.619 242.835 419.619 241.938L450.701 134.816C451.031 133.778 451.668 133.235 452.612 133.188L468.188 132.622C469.18 132.669 469.722 133.235 469.817 134.321ZM456.435 163.491L446.523 204.13L458.276 203.706L456.435 163.491ZM491.561 133.471L537.44 131.843C538.526 131.89 539.068 132.48 539.068 133.613L537.228 148.127C537.133 148.835 536.968 149.331 536.732 149.614C536.543 149.897 536.118 150.062 535.458 150.109L521.722 150.605L511.385 241.018C511.244 242.15 510.63 242.74 509.544 242.788L494.818 243.283C493.874 243.283 493.402 242.835 493.402 241.938L503.81 151.171L489.72 151.596C488.54 151.549 487.95 151.006 487.95 149.968L489.72 135.241C489.767 134.108 490.381 133.518 491.561 133.471ZM574.415 134.038L582.486 174.465L597 134.816C597.378 133.778 597.968 133.235 598.77 133.188L613.355 132.692C613.922 132.74 614.37 132.928 614.701 133.259C615.078 133.589 615.267 133.943 615.267 134.321L588.858 193.369L583.407 241.018C583.265 242.15 582.651 242.74 581.566 242.788L566.981 243.283C565.942 243.283 565.423 242.835 565.423 241.938L570.733 194.926L556.29 134.321C556.29 133.66 556.927 133.282 558.202 133.188L572.574 132.622C573.613 132.669 574.226 133.141 574.415 134.038ZM634.25 244.062C626.32 244.062 620.326 241.702 616.267 236.982C612.207 232.262 610.178 226.362 610.178 219.282C610.178 201.251 611.995 183.433 615.63 165.827C618.509 151.997 622.497 142.746 627.595 138.073C632.409 133.731 638.758 131.56 646.64 131.56C654.57 131.56 660.564 133.943 664.624 138.71C668.73 143.478 670.783 149.354 670.783 156.34C670.783 163.278 670.335 171.704 669.438 181.616C668.541 191.481 667.432 199.741 666.11 206.396C664.789 213.004 663.656 217.842 662.712 220.91C661.815 223.931 660.564 226.999 658.96 230.114C657.355 233.229 655.49 235.731 653.366 237.619C648.599 241.914 642.227 244.062 634.25 244.062ZM636.091 227.353C642.085 227.353 645.932 221.831 647.631 210.786C648.764 203.47 649.897 194.36 651.03 183.457C652.163 172.553 652.729 164.883 652.729 160.446C652.729 156.009 651.998 152.871 650.534 151.03C649.118 149.189 647.089 148.269 644.445 148.269C638.97 148.269 635.265 153.815 633.33 164.907C632.197 171.42 631.064 180.271 629.931 191.457C628.798 202.596 628.232 210.455 628.232 215.034C628.232 219.612 628.964 222.822 630.427 224.663C631.937 226.456 633.825 227.353 636.091 227.353ZM703.785 134.392L695.643 206.962C694.982 212.532 694.652 216.497 694.652 218.857C694.652 221.217 695.312 223.223 696.634 224.875C697.956 226.527 700.103 227.353 703.077 227.353C706.051 227.353 708.316 225.866 709.874 222.893C711.431 219.919 712.588 215.152 713.343 208.591L721.627 134.816C721.768 133.778 722.406 133.235 723.538 133.188L737.84 132.622C739.02 132.669 739.61 133.235 739.61 134.321L731.468 206.962C729.816 221.831 725.993 232.002 719.998 237.478C715.137 241.867 708.788 244.062 700.953 244.062C693.165 244.062 687.194 242.032 683.04 237.973C678.934 233.867 676.881 227.825 676.881 219.848C676.881 216.025 677.117 212.036 677.589 207.883L685.943 134.816C686.038 134.203 686.179 133.802 686.368 133.613C686.604 133.377 687.052 133.235 687.713 133.188L702.015 132.692C703.195 132.74 703.785 133.306 703.785 134.392ZM806.534 194.572L784.515 195.422L781.187 224.45L808.304 223.53C809.531 223.577 810.145 224.191 810.145 225.371L808.304 240.026C808.21 241.018 807.596 241.631 806.463 241.867L762.921 243.283C761.882 243.283 761.363 242.835 761.363 241.938L773.612 134.816C773.8 133.825 774.414 133.282 775.452 133.188L814.251 131.843C815.431 131.984 816.021 132.622 816.021 133.754L814.251 148.41C814.11 149.59 813.496 150.227 812.41 150.322L789.613 150.959L786.568 177.297L808.375 176.518C809.602 176.565 810.216 177.179 810.216 178.359L808.375 192.802C808.186 193.888 807.572 194.478 806.534 194.572ZM861.271 134.321L869.555 240.947C869.555 242.032 868.941 242.622 867.714 242.717L852.917 243.283C851.926 243.283 851.43 242.835 851.43 241.938L850.368 218.574L834.296 219.211L828.986 241.018C828.845 241.678 828.656 242.127 828.42 242.363C828.184 242.599 827.759 242.74 827.145 242.788L812.49 243.283C811.546 243.283 811.074 242.835 811.074 241.938L842.155 134.816C842.486 133.778 843.123 133.235 844.067 133.188L859.643 132.622C860.634 132.669 861.177 133.235 861.271 134.321ZM847.89 163.491L837.978 204.13L849.731 203.706L847.89 163.491ZM883.016 133.471L928.895 131.843C929.98 131.89 930.523 132.48 930.523 133.613L928.682 148.127C928.588 148.835 928.423 149.331 928.187 149.614C927.998 149.897 927.573 150.062 926.912 150.109L913.177 150.605L902.84 241.018C902.698 242.15 902.085 242.74 900.999 242.788L886.273 243.283C885.329 243.283 884.857 242.835 884.857 241.938L895.264 151.171L881.175 151.596C879.995 151.549 879.405 151.006 879.405 149.968L881.175 135.241C881.222 134.108 881.836 133.518 883.016 133.471Z" fill="url(#paint0_diamond_7_28)" fill-opacity="0.67"/>
<defs>
<radialGradient id="paint0_diamond_7_28" cx="0" cy="0" r="1" gradientUnits="userSpaceOnUse" gradientTransform="translate(592.962 -98.5) rotate(87.9852) scale(902.058 2863.45)">
<stop offset="0.321877"/>
<stop offset="1" stop-color="#0167FF" stop-opacity="0"/>
</radialGradient>
</defs>
</svg>
